# xmcd
#
# Track frame offsets:
#	150
#	20703
#	37187
#	54402
#	74503
#	93360
#	106831
#	128135
#	146670
#	163577
#	180171
#	220447
#
# Disc length: 3177 seconds
#
# Revision: 0
# Processed by: cddbd v1.5.1PL0 Copyright (c) Steve Scherf et al.
# Submitted via: dBpowerAMP V4.0
#
DISCID=ab0c670c
DTITLE=Garth Brooks - Double Live - Disc 2
DYEAR=1998
DGENRE=Country
TTITLE0=Ain't Goin' Down ('Til the Sun Comes Up)
TTITLE1=Rodeo
TTITLE2=Beaches of Cheyenne
TTITLE3=Two Pina Coladas
TTITLE4=Wild as the Wind
TTITLE5=To Make You Feel My Love
TTITLE6=That Summer
TTITLE7=American Honky-Tonk Bar Association
TTITLE8=If Tomarrow Never Comes
TTITLE9=Fever
TTITLE10=Friends in Low Places [The Long Version]
TTITLE11=Dance
EXTD=
EXTT0=
EXTT1=
EXTT2=
EXTT3=
EXTT4=
EXTT5=
EXTT6=
EXTT7=
EXTT8=
EXTT9=
EXTT10=
EXTT11=
PLAYORDER=
